<?xml version="1.0" encoding="UTF-8" standalone="no"?>
<svg
   viewBox="0 0 700 699.99999"
   version="1.1"
   id="svg10"
   sodipodi:docname="icon.svg"
   width="700"
   height="700"
   inkscape:export-filename="icon.png"
   inkscape:export-xdpi="480"
   inkscape:export-ydpi="480"
   inkscape:version="1.2.1 (9c6d41e410, 2022-07-14)"
   xmlns:inkscape="http://www.inkscape.org/namespaces/inkscape"
   xmlns:sodipodi="http://sodipodi.sourceforge.net/DTD/sodipodi-0.dtd"
   xmlns="http://www.w3.org/2000/svg"
   xmlns:svg="http://www.w3.org/2000/svg">
  <sodipodi:namedview
     id="namedview12"
     pagecolor="#ffffff"
     bordercolor="#ffffff"
     borderopacity="1"
     inkscape:showpageshadow="0"
     inkscape:pageopacity="1"
     inkscape:pagecheckerboard="1"
     inkscape:deskcolor="#505050"
     showgrid="false"
     inkscape:zoom="0.71312628"
     inkscape:cx="50.481943"
     inkscape:cy="507.62398"
     inkscape:window-width="1789"
     inkscape:window-height="1229"
     inkscape:window-x="2775"
     inkscape:window-y="1175"
     inkscape:window-maximized="0"
     inkscape:current-layer="svg10" />
  <!--! Font Awesome Pro 6.1.2 by @fontawesome - https://fontawesome.com License - https://fontawesome.com/license (Commercial License) Copyright 2022 Fonticons, Inc. -->
  <defs
     id="defs4">
    <style
       id="style2">.fa-secondary{opacity:.4}</style>
  </defs>
  <g
     id="g4651"
     transform="translate(30,110.05)">
    <path
       class="fa-primary"
       d="m 433.8,131.6 c 5.6,-5 13.3,-5 19.7,0 19.8,17.8 38.3,37 55.5,57.7 7.9,-9.8 16.8,-20.7 26.5,-29.5 5.6,-5.1 14.4,-5.1 20,0.1 24.7,22.7 45.6,52.6 60.3,81.1 14.6,28.1 24.2,56.8 24.2,76.9 0,87.9 -71.3,162 -160,162 -89.7,0 -160,-74.2 -160,-162 0,-26.4 12.7,-58.6 32.4,-90.5 20,-32.4 48.1,-66.1 81.4,-95.8 z m 46.3,284.3 c 18.9,0 34.9,-5 49.9,-15 30,-21 38,-63 20,-96 -2,-4 -4,-8 -7,-12 l -36,42 c 0,0 -58.9,-74 -62.9,-79 -29.1,37 -44.1,58 -44.1,82 0,49 36,78 80.1,78 z"
       id="path6"
       style="fill:#ff6600" />
    <path
       class="fa-secondary"
       d="m 384,0 c 35.3,0 64,28.65 64,64 v 32.2 c -12.6,-1.2 -25.5,2.7 -35.5,11.7 -10,8.8 -19.5,18 -28.5,27.5 V 96 C 384,78.3 369.7,64 352,64 H 96 C 78.33,64 64,78.3 64,96 v 64 c 0,17.7 14.33,32 32,32 h 241.5 c -4.4,6.2 -9.4,12.5 -12.3,18.7 -10.9,17.6 -20.5,36.5 -27.3,55.4 -3,-1.3 -6.4,-2.1 -9.9,-2.1 -13.3,0 -24,10.7 -24,24 0,13.3 10.7,24 24,24 h 0.2 c -0.1,2 -0.2,4.1 -0.2,6.1 0,49.3 18.6,95.2 49.6,129.9 H 64 C 28.65,448 0,419.3 0,384 V 64 C 0,28.65 28.65,0 64,0 Z M 96,312 c 13.3,0 24,-10.7 24,-24 0,-13.3 -10.7,-24 -24,-24 -13.25,0 -24,10.7 -24,24 0,13.3 10.75,24 24,24 z m 96,-48 c -13.3,0 -24,10.7 -24,24 0,13.3 10.7,24 24,24 13.3,0 24,-10.7 24,-24 0,-13.3 -10.7,-24 -24,-24 z"
       id="path8"
       style="opacity:1;fill:#7d1128;fill-opacity:1" />
  </g>
</svg>
